<svg width="512" height="512" viewBox="0 0 512 512" fill="none" xmlns="http://www.w3.org/2000/svg" role="img" aria-labelledby="title desc">
  <title id="title">PSScript logo</title>
  <desc id="desc">A modern command prompt mark with an orbiting AI spark.</desc>
  <rect width="512" height="512" rx="132" fill="url(#bg)"/>
  <path d="M93 154C93 132.461 110.461 115 132 115H380C401.539 115 419 132.461 419 154V358C419 379.539 401.539 397 380 397H132C110.461 397 93 379.539 93 358V154Z" fill="#07111F" fill-opacity="0.86" stroke="url(#frame)" stroke-width="10"/>
  <path d="M146 200L206 256L146 312" stroke="#7CF7D4" stroke-width="30" stroke-linecap="round" stroke-linejoin="round"/>
  <path d="M232 316H342" stroke="#F8FAFC" stroke-width="30" stroke-linecap="round"/>
  <path d="M350.5 132C397.72 162.55 429 215.69 429 276.1C429 294.05 426.24 311.35 421.12 327.62" stroke="#FFB347" stroke-width="13" stroke-linecap="round" stroke-dasharray="1 25"/>
  <circle cx="375" cy="150" r="27" fill="#FFB347"/>
  <circle cx="375" cy="150" r="11" fill="#07111F"/>
  <path d="M108 384C64.3 352.74 36 301.58 36 244C36 219.88 40.96 196.93 49.92 176.1" stroke="#4EA4FF" stroke-width="13" stroke-linecap="round" stroke-dasharray="1 25"/>
  <circle cx="55" cy="175" r="20" fill="#4EA4FF"/>
  <defs>
    <linearGradient id="bg" x1="54" y1="40" x2="451" y2="462" gradientUnits="userSpaceOnUse">
      <stop stop-color="#123C69"/>
      <stop offset="0.48" stop-color="#0B1D33"/>
      <stop offset="1" stop-color="#102A22"/>
    </linearGradient>
    <linearGradient id="frame" x1="103" y1="115" x2="419" y2="397" gradientUnits="userSpaceOnUse">
      <stop stop-color="#7CF7D4"/>
      <stop offset="0.52" stop-color="#4EA4FF"/>
      <stop offset="1" stop-color="#FFB347"/>
    </linearGradient>
  </defs>
</svg>
