<svg width="1200" height="240" viewBox="0 0 1200 240" fill="none" xmlns="http://www.w3.org/2000/svg">
  <defs>
    <marker id="arrow" markerWidth="10" markerHeight="10" refX="6" refY="3" orient="auto" markerUnits="strokeWidth">
      <path d="M0,0 L0,6 L6,3 z" fill="#64748b"/>
    </marker>
  </defs>

  <rect width="1200" height="240" rx="20" fill="#111827"/>
  <text x="32" y="40" fill="#f8fafc" font-family="Segoe UI, Arial, sans-serif" font-size="18" font-weight="600">Analysis Pipeline</text>

  <g font-family="Segoe UI, Arial, sans-serif" font-size="12">
    <rect x="40" y="80" width="160" height="80" rx="12" fill="#111827" stroke="#38bdf8" stroke-width="2"/>
    <text x="70" y="120" fill="#e2e8f0">Upload Script</text>

    <rect x="230" y="80" width="160" height="80" rx="12" fill="#111827" stroke="#22c55e" stroke-width="2"/>
    <text x="250" y="120" fill="#e2e8f0">Hash & Dedup</text>

    <rect x="420" y="80" width="160" height="80" rx="12" fill="#111827" stroke="#f59e0b" stroke-width="2"/>
    <text x="445" y="120" fill="#e2e8f0">AI Analysis</text>

    <rect x="610" y="80" width="160" height="80" rx="12" fill="#111827" stroke="#60a5fa" stroke-width="2"/>
    <text x="640" y="120" fill="#e2e8f0">Scores & Risks</text>

    <rect x="800" y="80" width="160" height="80" rx="12" fill="#111827" stroke="#818cf8" stroke-width="2"/>
    <text x="830" y="120" fill="#e2e8f0">Recommendations</text>

    <rect x="990" y="80" width="160" height="80" rx="12" fill="#111827" stroke="#14b8a6" stroke-width="2"/>
    <text x="1030" y="120" fill="#e2e8f0">Persist + Search</text>
  </g>

  <line x1="200" y1="120" x2="230" y2="120" stroke="#64748b" stroke-width="2" marker-end="url(#arrow)"/>
  <line x1="390" y1="120" x2="420" y2="120" stroke="#64748b" stroke-width="2" marker-end="url(#arrow)"/>
  <line x1="580" y1="120" x2="610" y2="120" stroke="#64748b" stroke-width="2" marker-end="url(#arrow)"/>
  <line x1="770" y1="120" x2="800" y2="120" stroke="#64748b" stroke-width="2" marker-end="url(#arrow)"/>
  <line x1="960" y1="120" x2="990" y2="120" stroke="#64748b" stroke-width="2" marker-end="url(#arrow)"/>

  <g opacity="0.5">
    <circle cx="1192.0" cy="8.0" r="5" fill="#0ea5e9" />
    <text x="1192.0" y="11.0" font-size="6" text-anchor="middle" fill="#ffffff">v2</text>
  </g>
</svg>
