<svg width="1000" height="520" viewBox="0 0 1000 520" fill="none" xmlns="http://www.w3.org/2000/svg">
  <defs>
    <marker id="arrow" markerWidth="10" markerHeight="10" refX="6" refY="3" orient="auto" markerUnits="strokeWidth">
      <path d="M0,0 L0,6 L6,3 z" fill="#94a3b8"/>
    </marker>
  </defs>

  <rect width="1000" height="520" rx="24" fill="#111827"/>
  <text x="40" y="48" fill="#f8fafc" font-family="Segoe UI, Arial, sans-serif" font-size="22" font-weight="600">PSScript Manager Architecture</text>

  <rect x="60" y="90" width="220" height="110" rx="16" fill="#111827" stroke="#60a5fa" stroke-width="2"/>
  <text x="80" y="138" fill="#e2e8f0" font-family="Segoe UI, Arial, sans-serif" font-size="16" font-weight="600">Frontend</text>
  <text x="80" y="162" fill="#94a3b8" font-family="Segoe UI, Arial, sans-serif" font-size="12">React + Vite</text>

  <rect x="380" y="90" width="240" height="110" rx="16" fill="#111827" stroke="#38bdf8" stroke-width="2"/>
  <text x="400" y="138" fill="#e2e8f0" font-family="Segoe UI, Arial, sans-serif" font-size="16" font-weight="600">Backend API</text>
  <text x="400" y="162" fill="#94a3b8" font-family="Segoe UI, Arial, sans-serif" font-size="12">Node + Express</text>

  <rect x="700" y="90" width="240" height="110" rx="16" fill="#111827" stroke="#22c55e" stroke-width="2"/>
  <text x="720" y="138" fill="#e2e8f0" font-family="Segoe UI, Arial, sans-serif" font-size="16" font-weight="600">AI Service</text>
  <text x="720" y="162" fill="#94a3b8" font-family="Segoe UI, Arial, sans-serif" font-size="12">FastAPI + LangGraph</text>

  <rect x="160" y="300" width="220" height="120" rx="16" fill="#111827" stroke="#818cf8" stroke-width="2"/>
  <text x="180" y="350" fill="#e2e8f0" font-family="Segoe UI, Arial, sans-serif" font-size="16" font-weight="600">Postgres</text>
  <text x="180" y="374" fill="#94a3b8" font-family="Segoe UI, Arial, sans-serif" font-size="12">pgvector embeddings</text>

  <rect x="430" y="300" width="190" height="120" rx="16" fill="#111827" stroke="#f59e0b" stroke-width="2"/>
  <text x="450" y="350" fill="#e2e8f0" font-family="Segoe UI, Arial, sans-serif" font-size="16" font-weight="600">Redis Cache</text>
  <text x="450" y="374" fill="#94a3b8" font-family="Segoe UI, Arial, sans-serif" font-size="12">Query + AI cache</text>

  <rect x="680" y="300" width="220" height="120" rx="16" fill="#111827" stroke="#14b8a6" stroke-width="2"/>
  <text x="700" y="350" fill="#e2e8f0" font-family="Segoe UI, Arial, sans-serif" font-size="16" font-weight="600">File Storage</text>
  <text x="700" y="374" fill="#94a3b8" font-family="Segoe UI, Arial, sans-serif" font-size="12">Uploads + hashes</text>

  <line x1="280" y1="145" x2="380" y2="145" stroke="#94a3b8" stroke-width="2" marker-end="url(#arrow)"/>
  <line x1="620" y1="145" x2="700" y2="145" stroke="#94a3b8" stroke-width="2" marker-end="url(#arrow)"/>

  <line x1="500" y1="200" x2="270" y2="300" stroke="#94a3b8" stroke-width="2" marker-end="url(#arrow)"/>
  <line x1="520" y1="200" x2="520" y2="300" stroke="#94a3b8" stroke-width="2" marker-end="url(#arrow)"/>
  <line x1="560" y1="200" x2="780" y2="300" stroke="#94a3b8" stroke-width="2" marker-end="url(#arrow)"/>

  <g opacity="0.5">
    <circle cx="992.0" cy="8.0" r="5" fill="#0ea5e9" />
    <text x="992.0" y="11.0" font-size="6" text-anchor="middle" fill="#ffffff">v2</text>
  </g>
</svg>
