<svg width="1000" height="280" viewBox="0 0 1000 280" fill="none" xmlns="http://www.w3.org/2000/svg">
  <defs>
    <marker id="arrow" markerWidth="10" markerHeight="10" refX="6" refY="3" orient="auto" markerUnits="strokeWidth">
      <path d="M0,0 L0,6 L6,3 z" fill="#64748b"/>
    </marker>
  </defs>

  <rect width="1000" height="280" rx="20" fill="#0f172a"/>
  <text x="32" y="40" fill="#f8fafc" font-family="Segoe UI, Arial, sans-serif" font-size="18" font-weight="600">Beginner Journey (First Week)</text>

  <rect x="40" y="110" width="150" height="70" rx="12" fill="#111827" stroke="#38bdf8" stroke-width="2"/>
  <text x="70" y="150" fill="#e2e8f0" font-family="Segoe UI, Arial, sans-serif" font-size="12" font-weight="600">Login</text>

  <rect x="210" y="110" width="150" height="70" rx="12" fill="#111827" stroke="#22c55e" stroke-width="2"/>
  <text x="240" y="150" fill="#e2e8f0" font-family="Segoe UI, Arial, sans-serif" font-size="12" font-weight="600">Upload</text>

  <rect x="380" y="110" width="150" height="70" rx="12" fill="#111827" stroke="#f59e0b" stroke-width="2"/>
  <text x="410" y="150" fill="#e2e8f0" font-family="Segoe UI, Arial, sans-serif" font-size="12" font-weight="600">Analyze</text>

  <rect x="550" y="110" width="150" height="70" rx="12" fill="#111827" stroke="#60a5fa" stroke-width="2"/>
  <text x="580" y="150" fill="#e2e8f0" font-family="Segoe UI, Arial, sans-serif" font-size="12" font-weight="600">Search</text>

  <rect x="720" y="110" width="170" height="70" rx="12" fill="#111827" stroke="#a855f7" stroke-width="2"/>
  <text x="740" y="150" fill="#e2e8f0" font-family="Segoe UI, Arial, sans-serif" font-size="12" font-weight="600">Govern</text>

  <line x1="190" y1="145" x2="210" y2="145" stroke="#64748b" stroke-width="2" marker-end="url(#arrow)"/>
  <line x1="360" y1="145" x2="380" y2="145" stroke="#64748b" stroke-width="2" marker-end="url(#arrow)"/>
  <line x1="530" y1="145" x2="550" y2="145" stroke="#64748b" stroke-width="2" marker-end="url(#arrow)"/>
  <line x1="700" y1="145" x2="720" y2="145" stroke="#64748b" stroke-width="2" marker-end="url(#arrow)"/>
</svg>
