<svg width="1000" height="320" viewBox="0 0 1000 320" fill="none" xmlns="http://www.w3.org/2000/svg">
  <defs>
    <marker id="arrow" markerWidth="10" markerHeight="10" refX="6" refY="3" orient="auto" markerUnits="strokeWidth">
      <path d="M0,0 L0,6 L6,3 z" fill="#64748b"/>
    </marker>
  </defs>

  <rect width="1000" height="320" rx="22" fill="#0f172a"/>
  <text x="32" y="44" fill="#f8fafc" font-family="Segoe UI, Arial, sans-serif" font-size="18" font-weight="600">Governance Loop</text>

  <rect x="60" y="120" width="160" height="80" rx="14" fill="#111827" stroke="#38bdf8" stroke-width="2"/>
  <text x="86" y="166" fill="#e2e8f0" font-family="Segoe UI, Arial, sans-serif" font-size="13" font-weight="600">Analyze</text>

  <rect x="250" y="120" width="160" height="80" rx="14" fill="#111827" stroke="#22c55e" stroke-width="2"/>
  <text x="284" y="166" fill="#e2e8f0" font-family="Segoe UI, Arial, sans-serif" font-size="13" font-weight="600">Review</text>

  <rect x="440" y="120" width="160" height="80" rx="14" fill="#111827" stroke="#f59e0b" stroke-width="2"/>
  <text x="474" y="166" fill="#e2e8f0" font-family="Segoe UI, Arial, sans-serif" font-size="13" font-weight="600">Approve</text>

  <rect x="630" y="120" width="160" height="80" rx="14" fill="#111827" stroke="#60a5fa" stroke-width="2"/>
  <text x="666" y="166" fill="#e2e8f0" font-family="Segoe UI, Arial, sans-serif" font-size="13" font-weight="600">Execute</text>

  <rect x="820" y="120" width="160" height="80" rx="14" fill="#111827" stroke="#a855f7" stroke-width="2"/>
  <text x="852" y="166" fill="#e2e8f0" font-family="Segoe UI, Arial, sans-serif" font-size="13" font-weight="600">Monitor</text>

  <line x1="220" y1="160" x2="250" y2="160" stroke="#64748b" stroke-width="2" marker-end="url(#arrow)"/>
  <line x1="410" y1="160" x2="440" y2="160" stroke="#64748b" stroke-width="2" marker-end="url(#arrow)"/>
  <line x1="600" y1="160" x2="630" y2="160" stroke="#64748b" stroke-width="2" marker-end="url(#arrow)"/>
  <line x1="790" y1="160" x2="820" y2="160" stroke="#64748b" stroke-width="2" marker-end="url(#arrow)"/>

  <path d="M900 90 C900 60 100 60 100 90" stroke="#64748b" stroke-width="2" fill="none" marker-end="url(#arrow)"/>
  <text x="430" y="78" fill="#94a3b8" font-family="Segoe UI, Arial, sans-serif" font-size="11">Continuous improvement loop</text>
</svg>
