<svg width="1200" height="600" viewBox="0 0 1200 600" xmlns="http://www.w3.org/2000/svg" role="img" aria-label="Automation grid illustration">
  <defs>
    <linearGradient id="bg-auto" x1="0" x2="1" y1="0" y2="1">
      <stop offset="0%" stop-color="#f1f5f9"/>
      <stop offset="100%" stop-color="#e0e7ff"/>
    </linearGradient>
    <linearGradient id="tile" x1="0" x2="1" y1="0" y2="1">
      <stop offset="0%" stop-color="#60a5fa"/>
      <stop offset="100%" stop-color="#8b5cf6"/>
    </linearGradient>
  </defs>
  <rect width="1200" height="600" rx="32" fill="url(#bg-auto)"/>
  <g opacity="0.95">
    <rect x="160" y="140" width="220" height="140" rx="20" fill="#ffffff"/>
    <rect x="420" y="140" width="220" height="140" rx="20" fill="#ffffff"/>
    <rect x="680" y="140" width="220" height="140" rx="20" fill="#ffffff"/>
    <rect x="160" y="320" width="220" height="140" rx="20" fill="#ffffff"/>
    <rect x="420" y="320" width="220" height="140" rx="20" fill="#ffffff"/>
    <rect x="680" y="320" width="220" height="140" rx="20" fill="#ffffff"/>
  </g>
  <circle cx="270" cy="210" r="32" fill="url(#tile)"/>
  <circle cx="530" cy="210" r="32" fill="url(#tile)"/>
  <circle cx="790" cy="210" r="32" fill="url(#tile)"/>
  <circle cx="270" cy="390" r="32" fill="url(#tile)"/>
  <circle cx="530" cy="390" r="32" fill="url(#tile)"/>
  <circle cx="790" cy="390" r="32" fill="url(#tile)"/>
</svg>
