<svg width="1100" height="360" viewBox="0 0 1100 360" fill="none" xmlns="http://www.w3.org/2000/svg">
  <defs>
    <marker id="arrow" markerWidth="10" markerHeight="10" refX="6" refY="3" orient="auto" markerUnits="strokeWidth">
      <path d="M0,0 L0,6 L6,3 z" fill="#64748b"/>
    </marker>
  </defs>

  <rect width="1100" height="360" rx="22" fill="#0f172a"/>
  <text x="32" y="44" fill="#f8fafc" font-family="Segoe UI, Arial, sans-serif" font-size="18" font-weight="600">Core Data Model</text>

  <rect x="450" y="140" width="200" height="90" rx="16" fill="#111827" stroke="#38bdf8" stroke-width="2"/>
  <text x="508" y="190" fill="#e2e8f0" font-family="Segoe UI, Arial, sans-serif" font-size="14" font-weight="600">Script</text>
  <text x="486" y="212" fill="#94a3b8" font-family="Segoe UI, Arial, sans-serif" font-size="11">hash, metadata</text>

  <rect x="120" y="80" width="200" height="80" rx="14" fill="#111827" stroke="#22c55e" stroke-width="2"/>
  <text x="150" y="126" fill="#e2e8f0" font-family="Segoe UI, Arial, sans-serif" font-size="13" font-weight="600">Analysis Result</text>

  <rect x="120" y="210" width="200" height="80" rx="14" fill="#111827" stroke="#f59e0b" stroke-width="2"/>
  <text x="158" y="256" fill="#e2e8f0" font-family="Segoe UI, Arial, sans-serif" font-size="13" font-weight="600">Embeddings</text>

  <rect x="780" y="80" width="200" height="80" rx="14" fill="#111827" stroke="#60a5fa" stroke-width="2"/>
  <text x="850" y="126" fill="#e2e8f0" font-family="Segoe UI, Arial, sans-serif" font-size="13" font-weight="600">Tags</text>

  <rect x="780" y="210" width="200" height="80" rx="14" fill="#111827" stroke="#a855f7" stroke-width="2"/>
  <text x="840" y="256" fill="#e2e8f0" font-family="Segoe UI, Arial, sans-serif" font-size="13" font-weight="600">Versions</text>

  <rect x="450" y="40" width="200" height="70" rx="14" fill="#111827" stroke="#14b8a6" stroke-width="2"/>
  <text x="515" y="82" fill="#e2e8f0" font-family="Segoe UI, Arial, sans-serif" font-size="13" font-weight="600">Owners</text>

  <rect x="450" y="260" width="200" height="70" rx="14" fill="#111827" stroke="#ef4444" stroke-width="2"/>
  <text x="500" y="302" fill="#e2e8f0" font-family="Segoe UI, Arial, sans-serif" font-size="13" font-weight="600">Audit Logs</text>

  <line x1="450" y1="170" x2="320" y2="120" stroke="#64748b" stroke-width="2" marker-end="url(#arrow)"/>
  <line x1="450" y1="200" x2="320" y2="250" stroke="#64748b" stroke-width="2" marker-end="url(#arrow)"/>
  <line x1="650" y1="170" x2="780" y2="120" stroke="#64748b" stroke-width="2" marker-end="url(#arrow)"/>
  <line x1="650" y1="200" x2="780" y2="250" stroke="#64748b" stroke-width="2" marker-end="url(#arrow)"/>
  <line x1="550" y1="140" x2="550" y2="110" stroke="#64748b" stroke-width="2" marker-end="url(#arrow)"/>
  <line x1="550" y1="230" x2="550" y2="260" stroke="#64748b" stroke-width="2" marker-end="url(#arrow)"/>
</svg>
