<svg width="1200" height="600" viewBox="0 0 1200 600" xmlns="http://www.w3.org/2000/svg" role="img" aria-label="Deployment flow illustration">
  <defs>
    <linearGradient id="bg-deploy" x1="0" x2="1" y1="0" y2="1">
      <stop offset="0%" stop-color="#eef2ff"/>
      <stop offset="100%" stop-color="#dbeafe"/>
    </linearGradient>
    <linearGradient id="node" x1="0" x2="1" y1="0" y2="1">
      <stop offset="0%" stop-color="#3b82f6"/>
      <stop offset="100%" stop-color="#6366f1"/>
    </linearGradient>
  </defs>
  <rect width="1200" height="600" rx="32" fill="url(#bg-deploy)"/>
  <rect x="120" y="140" width="260" height="140" rx="20" fill="#ffffff" opacity="0.95"/>
  <rect x="470" y="140" width="260" height="140" rx="20" fill="#ffffff" opacity="0.95"/>
  <rect x="820" y="140" width="260" height="140" rx="20" fill="#ffffff" opacity="0.95"/>
  <rect x="120" y="320" width="960" height="140" rx="24" fill="#ffffff" opacity="0.95"/>
  <circle cx="250" cy="210" r="34" fill="url(#node)"/>
  <circle cx="600" cy="210" r="34" fill="url(#node)"/>
  <circle cx="950" cy="210" r="34" fill="url(#node)"/>
  <path d="M284 210h282M634 210h282" stroke="#94a3b8" stroke-width="8" stroke-linecap="round"/>
  <rect x="180" y="360" width="220" height="24" rx="12" fill="#e2e8f0"/>
  <rect x="430" y="360" width="240" height="24" rx="12" fill="#c7d2fe"/>
  <rect x="710" y="360" width="220" height="24" rx="12" fill="#e2e8f0"/>
  <rect x="300" y="400" width="600" height="16" rx="8" fill="#bfdbfe"/>
</svg>
